{"title":"20140907 - Kingdom Currency - Darren Embree.mp4","uid":11085173,"size":188514084,"categoryP":"video","categoryS":"other","magnet":"?xt=urn:btih:acce3978696a719e32d2f810a810e9f7dba22886&amp;dn=20140907+-+Kingdom+Currency+-+Darren+Embree.mp4&amp;tr=udp%3A%2F%2Ftracker.openbittorrent.com%3A80&amp;tr=udp%3A%2F%2Fopen.demonii.com%3A1337&amp;tr=udp%3A%2F%2Ftracker.coppersurfer.tk%3A6969&amp;tr=udp%3A%2F%2Fexodus.desync.com%3A6969","seeders":0,"leechers":0,"uploader":"davidrpeet","files":1,"time":1411446450,"description":"Kingdom Currency - Darren Embree\nWeekly sermons from CrossRoads Church in Decatur, Texas\n\n\nGeneral\nFormat                                   : MPEG-4\nFormat profile                           : Base Media / Version 2\nCodec ID                                 : mp42\nFile size                                : 180 MiB\nDuration                                 : 32mn 50s\nOverall bit rate mode                    : Variable\nOverall bit rate                         : 765 Kbps\nMovie name                               : Kingdom Currency\nAlbum                                    : CrossRoads Church \nAlbum/Performer                          : Darren Embree\nPerformer                                : Darren Embree\nComposer                                 : http://crossroadspeople.com/\nGenre                                    : Speech\nRecorded date                            : 2014\nEncoded date                             : UTC 2014-09-08 23:09:11\nTagged date                              : UTC 2014-09-08 23:09:11\nCover                                    : Yes\nComment                                  : CrossRoads To Go Video Podcasts\n\nVideo\nID                                       : 1\nFormat                                   : AVC\nFormat/Info                              : Advanced Video Codec\nFormat profile                           : &lt;a class=&quot;__cf_email__&quot; href=&quot;/cdn-cgi/l/email-protection&quot; data-cfemail=&quot;733b1a141b333f405d42&quot;&gt;[email&amp;#160;protected]&lt;/a&gt;&lt;script data-cfhash='f9e31' type=&quot;text/javascript&quot;&gt;\n/* &lt;![CDATA[ */!function(){try{var t=&quot;currentScript&quot;in document?document.currentScript:function(){for(var t=document.getElementsByTagName(&quot;script&quot;),e=t.length;e--;)if(t[e].getAttribute(&quot;data-cfhash&quot;))return t[e]}();if(t&amp;&amp;t.previousSibling){var e,r,n,i,c=t.previousSibling,a=c.getAttribute(&quot;data-cfemail&quot;);if(a){for(e=&quot;&quot;,r=parseInt(a.substr(0,2),16),n=2;a.length-n;n+=2)i=parseInt(a.substr(n,2),16)^r,e+=String.fromCharCode(i);e=document.createTextNode(e),c.parentNode.replaceChild(e,c)}t.parentNode.removeChild(t);}}catch(u){}}()/* ]]&gt; */&lt;/script&gt;\nFormat settings, CABAC                   : Yes\nFormat settings, ReFrames                : 4 frames\nCodec ID                                 : avc1\nCodec ID/Info                            : Advanced Video Coding\nDuration                                 : 32mn 50s\nBit rate                                 : 658 Kbps\nWidth                                    : 640 pixels\nHeight                                   : 360 pixels\nDisplay aspect ratio                     : 16:9\nFrame rate mode                          : Constant\nFrame rate                               : 29.970 fps\nColor space                              : YUV\nChroma subsampling                       : 4:2:0\nBit depth                                : 8 bits\nScan type                                : Progressive\nBits/(Pixel*Frame)                       : 0.095\nStream size                              : 154 MiB (86%)\nWriting library                          : x264 core 142 r2431 a5831aa\nEncoded date                             : UTC 2014-09-08 23:09:11\nTagged date                              : UTC 2014-09-08 23:09:11\n\nAudio\nID                                       : 2\nFormat                                   : AAC\nFormat/Info                              : Advanced Audio Codec\nFormat profile                           : LC\nCodec ID                                 : 40\nDuration                                 : 32mn 50s\nBit rate mode                            : Variable\nBit rate                                 : 103 Kbps\nChannel(s)                               : 2 channels\nChannel positions                        : Front: L R\nSampling rate                            : 48.0 KHz\nCompression mode                         : Lossy\nStream size                              : 24.2 MiB (13%)\nEncoded date                             : UTC 2014-09-08 23:09:11\nTagged date                              : UTC 2014-09-08 23:09:11","torrent":{"xt":"urn:btih:acce3978696a719e32d2f810a810e9f7dba22886","amp;dn":"20140907+-+Kingdom+Currency+-+Darren+Embree.mp4","amp;tr":["udp%3A%2F%2Ftracker.openbittorrent.com%3A80","udp%3A%2F%2Fopen.demonii.com%3A1337","udp%3A%2F%2Ftracker.coppersurfer.tk%3A6969","udp%3A%2F%2Fexodus.desync.com%3A6969"],"infoHash":"acce3978696a719e32d2f810a810e9f7dba22886","infoHashBuffer":{"type":"Buffer","data":[172,206,57,120,105,106,113,158,50,210,248,16,168,16,233,247,219,162,40,134]},"announce":[],"urlList":[]}}